<svg xmlns="http://www.w3.org/2000/svg" xmlns:xlink="http://www.w3.org/1999/xlink" width="476" height="153" viewBox="0 0 476 153"><defs><filter id="a" x="4.97" y="12" width="464.03" height="131.735" filterUnits="userSpaceOnUse"><feOffset dy="3" input="SourceAlpha"/><feGaussianBlur stdDeviation="4" result="b"/><feFlood flood-opacity="0.678"/><feComposite operator="in" in2="b"/><feComposite in="SourceGraphic"/></filter><filter id="c" x="63.687" y="33.368" width="312" height="89" filterUnits="userSpaceOnUse"><feOffset dy="3" input="SourceAlpha"/><feGaussianBlur stdDeviation="3" result="d"/><feFlood flood-opacity="0.522"/><feComposite operator="in" in2="d"/><feComposite in="SourceGraphic"/></filter><filter id="e" x="355.098" y="39.698" width="47.575" height="49.824" filterUnits="userSpaceOnUse"><feOffset dy="3" input="SourceAlpha"/><feGaussianBlur stdDeviation="3" result="f"/><feFlood flood-opacity="0.812"/><feComposite operator="in" in2="f"/><feComposite in="SourceGraphic"/></filter><filter id="g" x="373.086" y="54.921" width="24.26" height="24.205" filterUnits="userSpaceOnUse"><feOffset dy="3" input="SourceAlpha"/><feGaussianBlur stdDeviation="3" result="h"/><feFlood flood-opacity="0.812"/><feComposite operator="in" in2="h"/><feComposite in="SourceGraphic"/></filter><filter id="i" x="358.476" y="45.032" width="42.393" height="44.723" filterUnits="userSpaceOnUse"><feOffset dy="3" input="SourceAlpha"/><feGaussianBlur stdDeviation="3" result="j"/><feFlood flood-opacity="0.812"/><feComposite operator="in" in2="j"/><feComposite in="SourceGraphic"/></filter><filter id="k" x="361.394" y="66.669" width="46.721" height="49.609" filterUnits="userSpaceOnUse"><feOffset dy="3" input="SourceAlpha"/><feGaussianBlur stdDeviation="3" result="l"/><feFlood flood-opacity="0.82"/><feComposite operator="in" in2="l"/><feComposite in="SourceGraphic"/></filter><filter id="m" x="366.121" y="77.395" width="24.181" height="24.078" filterUnits="userSpaceOnUse"><feOffset dy="3" input="SourceAlpha"/><feGaussianBlur stdDeviation="3" result="n"/><feFlood flood-opacity="0.82"/><feComposite operator="in" in2="n"/><feComposite in="SourceGraphic"/></filter><filter id="o" x="362.852" y="66.388" width="41.684" height="44.676" filterUnits="userSpaceOnUse"><feOffset dy="3" input="SourceAlpha"/><feGaussianBlur stdDeviation="3" result="p"/><feFlood flood-opacity="0.82"/><feComposite operator="in" in2="p"/><feComposite in="SourceGraphic"/></filter><clipPath id="r"><rect width="476" height="153"/></clipPath></defs><g id="q" clip-path="url(#r)"><rect width="476" height="153" fill="#fff"/><g transform="translate(-804.03 -359)"><g transform="matrix(1, 0, 0, 1, 804.03, 359)" filter="url(#a)"><g transform="translate(16.97 21)" fill="none" stroke="#000" stroke-width="1"><rect width="440.03" height="107.735" rx="24" stroke="none"/><rect x="0.5" y="0.5" width="439.03" height="106.735" rx="23.5" fill="none"/></g></g></g><g transform="translate(-842 -362)"><g transform="matrix(1, 0, 0, 1, 842, 362)" filter="url(#c)"><text transform="translate(219.69 92.37)" stroke="#000" stroke-width="1" font-size="69" font-family="SitkaHeading, Sitka Heading"><tspan x="-145.529" y="0">HeadBone</tspan></text></g><g transform="matrix(0.999, 0.035, -0.035, 0.999, 145.596, -458.547)"><g transform="matrix(0.848, 0.53, -0.53, 0.848, 1104.941, 828.887)"><g transform="matrix(0.83, -0.56, 0.56, 0.83, -340.1, 173.43)" filter="url(#e)"><path d="M16.857,10.8C17.582,2.1,13.242.055,10.013,0S.725,1.182.062,7.186,4.173,21.5,8.466,23.537c3.7,1.724,5.06,1.744,5.06,1.744" transform="matrix(0.83, 0.56, -0.56, 0.83, 378.94, 46.4)" fill="none" stroke="#000" stroke-linecap="square" stroke-linejoin="round" stroke-width="1"/></g><g transform="matrix(0.83, -0.56, 0.56, 0.83, -340.1, 173.43)" filter="url(#g)"><path d="M1.936.006A1.439,1.439,0,0,1,3.584,1.555,2.119,2.119,0,0,1,1.654,3.38,1.439,1.439,0,0,1,.006,1.831,2.119,2.119,0,0,1,1.936.006Z" transform="matrix(0.83, 0.56, -0.56, 0.83, 384.67, 61.62)" fill="none" stroke="#000" stroke-linecap="square" stroke-linejoin="round" stroke-width="1"/></g><g transform="matrix(0.83, -0.56, 0.56, 0.83, -340.1, 173.43)" filter="url(#i)"><path d="M9.147,7.52C9.634,1.683,7.272.072,5.521,0A5.047,5.047,0,0,0,.047,4.731C-.376,8.757,2.123,14.385,4.43,15.8a6.193,6.193,0,0,0,2.725,1.222c1.9.366,3.688.292,4.761,1.242s1.454,2.008.81,2.853-3.387.526-3.387.526" transform="matrix(0.83, 0.56, -0.56, 0.83, 380.32, 51.73)" fill="none" stroke="#000" stroke-linecap="square" stroke-linejoin="round" stroke-width="1"/></g></g><g transform="matrix(-0.883, -0.469, 0.469, -0.883, 1113.907, 885.803)"><g transform="matrix(-0.87, 0.5, -0.5, -0.87, 386, -103.24)" filter="url(#k)"><path d="M17.059,10.721c.67-8.6-3.733-10.649-7-10.719S.68,1.123.054,7.058,4.316,21.237,8.671,23.276C12.422,25,13.8,25.028,13.8,25.028" transform="matrix(-0.87, -0.5, 0.5, -0.87, 385.91, 103.59)" fill="none" stroke="#000" stroke-linecap="square" stroke-linejoin="round" stroke-width="1"/></g><g transform="matrix(-0.87, 0.5, -0.5, -0.87, 386, -103.24)" filter="url(#m)"><path d="M1.942,0A1.461,1.461,0,0,1,3.62,1.546a2.089,2.089,0,0,1-1.938,1.8A1.461,1.461,0,0,1,0,1.8,2.089,2.089,0,0,1,1.942,0Z" transform="matrix(-0.87, -0.5, 0.5, -0.87, 378.94, 88.79)" fill="none" stroke="#000" stroke-linecap="square" stroke-linejoin="round" stroke-width="1"/></g><g transform="matrix(-0.87, 0.5, -0.5, -0.87, 386, -103.24)" filter="url(#o)"><path d="M9.261,7.458C9.711,1.687,7.311.081,5.54.005a5,5,0,0,0-5.5,4.648c-.4,3.98,2.17,9.561,4.512,10.969a6.417,6.417,0,0,0,2.764,1.223c1.921.372,3.73.308,4.822,1.253s1.485,1.994.84,2.827-3.421.5-3.421.5" transform="matrix(-0.87, -0.5, 0.5, -0.87, 384.09, 98.37)" fill="none" stroke="#000" stroke-linecap="square" stroke-linejoin="round" stroke-width="1"/></g></g></g></g></g></svg>